<svg id="visual" viewBox="0 0 1280 720" width="1280" height="720" xmlns="http://www.w3.org/2000/svg" xmlns:xlink="http://www.w3.org/1999/xlink" version="1.1"><g stroke-width="1" stroke-linejoin="bevel"><path d="M542.9 342L554.9 265L430.7 245Z" fill="#2b4053" stroke="#2b4053"></path><path d="M430.7 245L388.7 354L542.9 342Z" fill="#49637c" stroke="#49637c"></path><path d="M554.9 265L445.7 141L430.7 245Z" fill="#1d2f40" stroke="#1d2f40"></path><path d="M430.7 245L262.4 233L388.7 354Z" fill="#1d2f40" stroke="#1d2f40"></path><path d="M554.9 265L562.9 113L445.7 141Z" fill="#3a5167" stroke="#3a5167"></path><path d="M542.9 342L677.1 246L554.9 265Z" fill="#8ab0d6" stroke="#8ab0d6"></path><path d="M554.9 265L677.1 246L562.9 113Z" fill="#597592" stroke="#597592"></path><path d="M415.7 481L530.9 486L542.9 342Z" fill="#3a5167" stroke="#3a5167"></path><path d="M542.9 342L741.1 398L677.1 246Z" fill="#3a5167" stroke="#3a5167"></path><path d="M388.7 354L415.7 481L542.9 342Z" fill="#2b4053" stroke="#2b4053"></path><path d="M313.4 103L262.4 233L430.7 245Z" fill="#2b4053" stroke="#2b4053"></path><path d="M388.7 354L295.4 465L415.7 481Z" fill="#00101c" stroke="#00101c"></path><path d="M262.4 233L246.4 368L388.7 354Z" fill="#1d2f40" stroke="#1d2f40"></path><path d="M246.4 368L295.4 465L388.7 354Z" fill="#10202d" stroke="#10202d"></path><path d="M459.7 0L313.4 103L445.7 141Z" fill="#1d2f40" stroke="#1d2f40"></path><path d="M445.7 141L313.4 103L430.7 245Z" fill="#49637c" stroke="#49637c"></path><path d="M530.9 486L672.1 475L542.9 342Z" fill="#3a5167" stroke="#3a5167"></path><path d="M672.1 475L741.1 398L542.9 342Z" fill="#1d2f40" stroke="#1d2f40"></path><path d="M830.3 230L718.1 121L677.1 246Z" fill="#8ab0d6" stroke="#8ab0d6"></path><path d="M677.1 246L718.1 121L562.9 113Z" fill="#2b4053" stroke="#2b4053"></path><path d="M532.9 0L459.7 0L562.9 113Z" fill="#1d2f40" stroke="#1d2f40"></path><path d="M562.9 113L459.7 0L445.7 141Z" fill="#3a5167" stroke="#3a5167"></path><path d="M415.7 481L464.7 589L530.9 486Z" fill="#597592" stroke="#597592"></path><path d="M530.9 486L596.9 586L672.1 475Z" fill="#597592" stroke="#597592"></path><path d="M314.4 563L464.7 589L415.7 481Z" fill="#597592" stroke="#597592"></path><path d="M735.1 0L532.9 0L562.9 113Z" fill="#00101c" stroke="#00101c"></path><path d="M464.7 589L596.9 586L530.9 486Z" fill="#49637c" stroke="#49637c"></path><path d="M672.1 475L835.3 480L741.1 398Z" fill="#2b4053" stroke="#2b4053"></path><path d="M164.2 475L314.4 563L295.4 465Z" fill="#1d2f40" stroke="#1d2f40"></path><path d="M295.4 465L314.4 563L415.7 481Z" fill="#6888a8" stroke="#6888a8"></path><path d="M313.4 103L178.2 148L262.4 233Z" fill="#3a5167" stroke="#3a5167"></path><path d="M130.2 250L150.2 385L246.4 368Z" fill="#00101c" stroke="#00101c"></path><path d="M149.2 0L178.2 148L313.4 103Z" fill="#8ab0d6" stroke="#8ab0d6"></path><path d="M459.7 0L302.4 0L313.4 103Z" fill="#597592" stroke="#597592"></path><path d="M130.2 250L246.4 368L262.4 233Z" fill="#00101c" stroke="#00101c"></path><path d="M246.4 368L164.2 475L295.4 465Z" fill="#6888a8" stroke="#6888a8"></path><path d="M741.1 398L830.3 230L677.1 246Z" fill="#8ab0d6" stroke="#8ab0d6"></path><path d="M178.2 148L130.2 250L262.4 233Z" fill="#8ab0d6" stroke="#8ab0d6"></path><path d="M150.2 385L164.2 475L246.4 368Z" fill="#49637c" stroke="#49637c"></path><path d="M833.3 87L735.1 0L718.1 121Z" fill="#49637c" stroke="#49637c"></path><path d="M718.1 121L735.1 0L562.9 113Z" fill="#8ab0d6" stroke="#8ab0d6"></path><path d="M596.9 586L721.1 601L672.1 475Z" fill="#9bc4ee" stroke="#9bc4ee"></path><path d="M741.1 398L868.3 388L830.3 230Z" fill="#597592" stroke="#597592"></path><path d="M592.9 720L721.1 601L596.9 586Z" fill="#597592" stroke="#597592"></path><path d="M835.3 480L868.3 388L741.1 398Z" fill="#2b4053" stroke="#2b4053"></path><path d="M721.1 601L835.3 480L672.1 475Z" fill="#2b4053" stroke="#2b4053"></path><path d="M830.3 230L833.3 87L718.1 121Z" fill="#9bc4ee" stroke="#9bc4ee"></path><path d="M867.3 0L833.3 87L1021.6 132Z" fill="#6888a8" stroke="#6888a8"></path><path d="M305.4 720L458.7 720L464.7 589Z" fill="#9bc4ee" stroke="#9bc4ee"></path><path d="M464.7 589L592.9 720L596.9 586Z" fill="#49637c" stroke="#49637c"></path><path d="M305.4 720L464.7 589L314.4 563Z" fill="#1d2f40" stroke="#1d2f40"></path><path d="M458.7 720L592.9 720L464.7 589Z" fill="#00101c" stroke="#00101c"></path><path d="M718.1 720L817.3 583L721.1 601Z" fill="#49637c" stroke="#49637c"></path><path d="M721.1 601L817.3 583L835.3 480Z" fill="#6888a8" stroke="#6888a8"></path><path d="M1027.6 463L968.6 339L868.3 388Z" fill="#00101c" stroke="#00101c"></path><path d="M0 515L167.2 604L164.2 475Z" fill="#8ab0d6" stroke="#8ab0d6"></path><path d="M164.2 475L167.2 604L314.4 563Z" fill="#597592" stroke="#597592"></path><path d="M0 515L164.2 475L150.2 385Z" fill="#00101c" stroke="#00101c"></path><path d="M302.4 0L149.2 0L313.4 103Z" fill="#8ab0d6" stroke="#8ab0d6"></path><path d="M0 131L0 247L130.2 250Z" fill="#2b4053" stroke="#2b4053"></path><path d="M167.2 604L305.4 720L314.4 563Z" fill="#597592" stroke="#597592"></path><path d="M1011.6 200L833.3 87L830.3 230Z" fill="#1d2f40" stroke="#1d2f40"></path><path d="M833.3 87L867.3 0L735.1 0Z" fill="#3a5167" stroke="#3a5167"></path><path d="M1027.6 463L868.3 388L835.3 480Z" fill="#1d2f40" stroke="#1d2f40"></path><path d="M868.3 388L968.6 339L830.3 230Z" fill="#3a5167" stroke="#3a5167"></path><path d="M592.9 720L718.1 720L721.1 601Z" fill="#597592" stroke="#597592"></path><path d="M0 131L130.2 250L178.2 148Z" fill="#10202d" stroke="#10202d"></path><path d="M130.2 250L0 347L150.2 385Z" fill="#3a5167" stroke="#3a5167"></path><path d="M0 247L0 347L130.2 250Z" fill="#1d2f40" stroke="#1d2f40"></path><path d="M149.2 0L0 131L178.2 148Z" fill="#3a5167" stroke="#3a5167"></path><path d="M0 720L169.2 720L167.2 604Z" fill="#10202d" stroke="#10202d"></path><path d="M167.2 604L169.2 720L305.4 720Z" fill="#1d2f40" stroke="#1d2f40"></path><path d="M968.6 339L1011.6 200L830.3 230Z" fill="#9bc4ee" stroke="#9bc4ee"></path><path d="M0 347L0 515L150.2 385Z" fill="#49637c" stroke="#49637c"></path><path d="M1011.6 200L1021.6 132L833.3 87Z" fill="#10202d" stroke="#10202d"></path><path d="M974.6 584L835.3 480L817.3 583Z" fill="#8ab0d6" stroke="#8ab0d6"></path><path d="M974.6 584L1027.6 463L835.3 480Z" fill="#49637c" stroke="#49637c"></path><path d="M968.6 339L1167.8 233L1011.6 200Z" fill="#1d2f40" stroke="#1d2f40"></path><path d="M1011.6 200L1167.8 233L1021.6 132Z" fill="#00101c" stroke="#00101c"></path><path d="M877.3 720L974.6 584L817.3 583Z" fill="#597592" stroke="#597592"></path><path d="M149.2 0L0 0L0 131Z" fill="#597592" stroke="#597592"></path><path d="M0 515L0 606L167.2 604Z" fill="#49637c" stroke="#49637c"></path><path d="M718.1 720L877.3 720L817.3 583Z" fill="#9bc4ee" stroke="#9bc4ee"></path><path d="M1021.6 132L1015.6 0L867.3 0Z" fill="#2b4053" stroke="#2b4053"></path><path d="M0 606L0 720L167.2 604Z" fill="#49637c" stroke="#49637c"></path><path d="M1176.8 590L1114.8 500L974.6 584Z" fill="#1d2f40" stroke="#1d2f40"></path><path d="M974.6 584L1114.8 500L1027.6 463Z" fill="#00101c" stroke="#00101c"></path><path d="M1169.8 389L1167.8 233L968.6 339Z" fill="#49637c" stroke="#49637c"></path><path d="M1021.6 132L1165.8 84L1015.6 0Z" fill="#6888a8" stroke="#6888a8"></path><path d="M1169.8 389L968.6 339L1027.6 463Z" fill="#799cbf" stroke="#799cbf"></path><path d="M877.3 720L1024.6 720L974.6 584Z" fill="#00101c" stroke="#00101c"></path><path d="M1114.8 500L1169.8 389L1027.6 463Z" fill="#10202d" stroke="#10202d"></path><path d="M1280 483L1169.8 389L1114.8 500Z" fill="#799cbf" stroke="#799cbf"></path><path d="M1167.8 233L1165.8 84L1021.6 132Z" fill="#00101c" stroke="#00101c"></path><path d="M1165.8 84L1147.8 0L1015.6 0Z" fill="#799cbf" stroke="#799cbf"></path><path d="M1024.6 720L1176.8 590L974.6 584Z" fill="#597592" stroke="#597592"></path><path d="M1169.8 389L1280 328L1167.8 233Z" fill="#9bc4ee" stroke="#9bc4ee"></path><path d="M1167.8 233L1280 202L1165.8 84Z" fill="#9bc4ee" stroke="#9bc4ee"></path><path d="M1024.6 720L1149.8 720L1176.8 590Z" fill="#10202d" stroke="#10202d"></path><path d="M1280 483L1114.8 500L1176.8 590Z" fill="#00101c" stroke="#00101c"></path><path d="M1280 483L1280 328L1169.8 389Z" fill="#00101c" stroke="#00101c"></path><path d="M1165.8 84L1280 0L1147.8 0Z" fill="#10202d" stroke="#10202d"></path><path d="M1280 328L1280 202L1167.8 233Z" fill="#799cbf" stroke="#799cbf"></path><path d="M1280 623L1280 483L1176.8 590Z" fill="#49637c" stroke="#49637c"></path><path d="M1280 202L1280 88L1165.8 84Z" fill="#597592" stroke="#597592"></path><path d="M1280 88L1280 0L1165.8 84Z" fill="#9bc4ee" stroke="#9bc4ee"></path><path d="M1149.8 720L1280 623L1176.8 590Z" fill="#597592" stroke="#597592"></path><path d="M1149.8 720L1280 720L1280 623Z" fill="#597592" stroke="#597592"></path></g></svg>