<svg id="visual" viewBox="0 0 1280 720" width="1280" height="720" xmlns="http://www.w3.org/2000/svg" xmlns:xlink="http://www.w3.org/1999/xlink" version="1.1"><g stroke-width="1" stroke-linejoin="bevel"><path d="M597.9 396L693.1 514L697.1 372Z" fill="#0c2435" stroke="#0c2435"></path><path d="M597.9 396L551.9 516L693.1 514Z" fill="#00101c" stroke="#00101c"></path><path d="M600.9 629L744.1 561L693.1 514Z" fill="#081a28" stroke="#081a28"></path><path d="M693.1 514L816.3 470L697.1 372Z" fill="#297ea6" stroke="#297ea6"></path><path d="M744.1 561L816.3 470L693.1 514Z" fill="#00101c" stroke="#00101c"></path><path d="M816.3 470L849.3 389L697.1 372Z" fill="#1d4e6b" stroke="#1d4e6b"></path><path d="M551.9 516L600.9 629L693.1 514Z" fill="#277297" stroke="#277297"></path><path d="M742.1 251L582.9 252L697.1 372Z" fill="#081a28" stroke="#081a28"></path><path d="M697.1 372L582.9 252L597.9 396Z" fill="#246688" stroke="#246688"></path><path d="M597.9 396L439.7 489L551.9 516Z" fill="#297ea6" stroke="#297ea6"></path><path d="M849.3 389L742.1 251L697.1 372Z" fill="#277297" stroke="#277297"></path><path d="M400.7 376L439.7 489L597.9 396Z" fill="#19435d" stroke="#19435d"></path><path d="M551.9 516L444.7 617L600.9 629Z" fill="#205a7a" stroke="#205a7a"></path><path d="M828.3 720L860.3 568L744.1 561Z" fill="#205a7a" stroke="#205a7a"></path><path d="M744.1 561L860.3 568L816.3 470Z" fill="#0c2435" stroke="#0c2435"></path><path d="M975.6 476L961.6 374L849.3 389Z" fill="#112e42" stroke="#112e42"></path><path d="M441.7 268L400.7 376L597.9 396Z" fill="#297ea6" stroke="#297ea6"></path><path d="M439.7 489L444.7 617L551.9 516Z" fill="#00101c" stroke="#00101c"></path><path d="M266.4 593L444.7 617L439.7 489Z" fill="#081a28" stroke="#081a28"></path><path d="M582.9 252L441.7 268L597.9 396Z" fill="#081a28" stroke="#081a28"></path><path d="M579.9 720L712.1 720L600.9 629Z" fill="#081a28" stroke="#081a28"></path><path d="M600.9 629L712.1 720L744.1 561Z" fill="#205a7a" stroke="#205a7a"></path><path d="M444.7 617L579.9 720L600.9 629Z" fill="#1d4e6b" stroke="#1d4e6b"></path><path d="M975.6 476L849.3 389L816.3 470Z" fill="#112e42" stroke="#112e42"></path><path d="M849.3 389L887.3 231L742.1 251Z" fill="#00101c" stroke="#00101c"></path><path d="M961.6 374L887.3 231L849.3 389Z" fill="#246688" stroke="#246688"></path><path d="M742.1 251L605.9 135L582.9 252Z" fill="#205a7a" stroke="#205a7a"></path><path d="M703.1 84L605.9 135L742.1 251Z" fill="#0c2435" stroke="#0c2435"></path><path d="M582.9 252L444.7 156L441.7 268Z" fill="#246688" stroke="#246688"></path><path d="M860.3 568L975.6 476L816.3 470Z" fill="#205a7a" stroke="#205a7a"></path><path d="M969.6 593L975.6 476L860.3 568Z" fill="#00101c" stroke="#00101c"></path><path d="M712.1 720L828.3 720L744.1 561Z" fill="#1d4e6b" stroke="#1d4e6b"></path><path d="M828.3 720L969.6 593L860.3 568Z" fill="#15384f" stroke="#15384f"></path><path d="M605.9 135L444.7 156L582.9 252Z" fill="#297ea6" stroke="#297ea6"></path><path d="M441.7 268L307.4 362L400.7 376Z" fill="#00101c" stroke="#00101c"></path><path d="M865.3 97L703.1 84L742.1 251Z" fill="#15384f" stroke="#15384f"></path><path d="M605.9 135L531.9 0L444.7 156Z" fill="#297ea6" stroke="#297ea6"></path><path d="M287.4 211L307.4 362L441.7 268Z" fill="#00101c" stroke="#00101c"></path><path d="M400.7 376L252.4 446L439.7 489Z" fill="#277297" stroke="#277297"></path><path d="M266.4 593L415.7 720L444.7 617Z" fill="#297ea6" stroke="#297ea6"></path><path d="M444.7 617L415.7 720L579.9 720Z" fill="#205a7a" stroke="#205a7a"></path><path d="M1027.6 104L865.3 97L887.3 231Z" fill="#19435d" stroke="#19435d"></path><path d="M887.3 231L865.3 97L742.1 251Z" fill="#246688" stroke="#246688"></path><path d="M961.6 374L1023.6 270L887.3 231Z" fill="#205a7a" stroke="#205a7a"></path><path d="M1135.8 387L1023.6 270L961.6 374Z" fill="#0c2435" stroke="#0c2435"></path><path d="M1135.8 387L961.6 374L975.6 476Z" fill="#205a7a" stroke="#205a7a"></path><path d="M307.4 362L252.4 446L400.7 376Z" fill="#15384f" stroke="#15384f"></path><path d="M252.4 446L266.4 593L439.7 489Z" fill="#19435d" stroke="#19435d"></path><path d="M828.3 720L1000.6 720L969.6 593Z" fill="#19435d" stroke="#19435d"></path><path d="M969.6 593L1124.8 500L975.6 476Z" fill="#277297" stroke="#277297"></path><path d="M444.7 156L287.4 211L441.7 268Z" fill="#205a7a" stroke="#205a7a"></path><path d="M307.4 362L161.2 329L252.4 446Z" fill="#112e42" stroke="#112e42"></path><path d="M818.3 0L737.1 0L703.1 84Z" fill="#19435d" stroke="#19435d"></path><path d="M703.1 84L531.9 0L605.9 135Z" fill="#205a7a" stroke="#205a7a"></path><path d="M444.7 156L260.4 150L287.4 211Z" fill="#00101c" stroke="#00101c"></path><path d="M737.1 0L531.9 0L703.1 84Z" fill="#15384f" stroke="#15384f"></path><path d="M1155.8 638L1124.8 500L969.6 593Z" fill="#00101c" stroke="#00101c"></path><path d="M865.3 97L818.3 0L703.1 84Z" fill="#15384f" stroke="#15384f"></path><path d="M1028.6 0L818.3 0L865.3 97Z" fill="#081a28" stroke="#081a28"></path><path d="M1124.8 500L1135.8 387L975.6 476Z" fill="#297ea6" stroke="#297ea6"></path><path d="M1023.6 270L1027.6 104L887.3 231Z" fill="#19435d" stroke="#19435d"></path><path d="M531.9 0L437.7 0L444.7 156Z" fill="#19435d" stroke="#19435d"></path><path d="M312.4 0L260.4 150L444.7 156Z" fill="#0c2435" stroke="#0c2435"></path><path d="M287.4 211L161.2 329L307.4 362Z" fill="#297ea6" stroke="#297ea6"></path><path d="M102.2 592L250.4 720L266.4 593Z" fill="#112e42" stroke="#112e42"></path><path d="M266.4 593L250.4 720L415.7 720Z" fill="#00101c" stroke="#00101c"></path><path d="M1130.8 123L1027.6 104L1023.6 270Z" fill="#19435d" stroke="#19435d"></path><path d="M103.2 220L161.2 329L287.4 211Z" fill="#081a28" stroke="#081a28"></path><path d="M252.4 446L130.2 517L266.4 593Z" fill="#0c2435" stroke="#0c2435"></path><path d="M1000.6 720L1155.8 638L969.6 593Z" fill="#081a28" stroke="#081a28"></path><path d="M1124.8 500L1280 501L1135.8 387Z" fill="#19435d" stroke="#19435d"></path><path d="M161.2 329L130.2 517L252.4 446Z" fill="#277297" stroke="#277297"></path><path d="M1135.8 387L1163.8 203L1023.6 270Z" fill="#205a7a" stroke="#205a7a"></path><path d="M1280 377L1163.8 203L1135.8 387Z" fill="#00101c" stroke="#00101c"></path><path d="M437.7 0L312.4 0L444.7 156Z" fill="#277297" stroke="#277297"></path><path d="M260.4 150L103.2 220L287.4 211Z" fill="#205a7a" stroke="#205a7a"></path><path d="M1163.8 203L1130.8 123L1023.6 270Z" fill="#205a7a" stroke="#205a7a"></path><path d="M1027.6 104L1028.6 0L865.3 97Z" fill="#19435d" stroke="#19435d"></path><path d="M1134.8 0L1028.6 0L1027.6 104Z" fill="#081a28" stroke="#081a28"></path><path d="M0 600L102.2 592L130.2 517Z" fill="#0c2435" stroke="#0c2435"></path><path d="M130.2 517L102.2 592L266.4 593Z" fill="#277297" stroke="#277297"></path><path d="M1000.6 720L1169.8 720L1155.8 638Z" fill="#277297" stroke="#277297"></path><path d="M1280 574L1280 501L1124.8 500Z" fill="#0c2435" stroke="#0c2435"></path><path d="M117.2 108L103.2 220L260.4 150Z" fill="#081a28" stroke="#081a28"></path><path d="M161.2 329L0 452L130.2 517Z" fill="#277297" stroke="#277297"></path><path d="M1280 574L1124.8 500L1155.8 638Z" fill="#0c2435" stroke="#0c2435"></path><path d="M1280 501L1280 377L1135.8 387Z" fill="#0c2435" stroke="#0c2435"></path><path d="M1280 107L1134.8 0L1130.8 123Z" fill="#246688" stroke="#246688"></path><path d="M102.2 592L102.2 720L250.4 720Z" fill="#297ea6" stroke="#297ea6"></path><path d="M1280 720L1280 574L1155.8 638Z" fill="#277297" stroke="#277297"></path><path d="M124.2 0L117.2 108L260.4 150Z" fill="#112e42" stroke="#112e42"></path><path d="M1280 107L1130.8 123L1163.8 203Z" fill="#277297" stroke="#277297"></path><path d="M1130.8 123L1134.8 0L1027.6 104Z" fill="#277297" stroke="#277297"></path><path d="M1280 377L1280 224L1163.8 203Z" fill="#205a7a" stroke="#205a7a"></path><path d="M0 357L0 452L161.2 329Z" fill="#246688" stroke="#246688"></path><path d="M102.2 592L0 600L102.2 720Z" fill="#112e42" stroke="#112e42"></path><path d="M0 357L161.2 329L103.2 220Z" fill="#297ea6" stroke="#297ea6"></path><path d="M0 224L0 357L103.2 220Z" fill="#1d4e6b" stroke="#1d4e6b"></path><path d="M1169.8 720L1280 720L1155.8 638Z" fill="#246688" stroke="#246688"></path><path d="M0 452L0 600L130.2 517Z" fill="#19435d" stroke="#19435d"></path><path d="M312.4 0L124.2 0L260.4 150Z" fill="#19435d" stroke="#19435d"></path><path d="M0 111L0 224L103.2 220Z" fill="#081a28" stroke="#081a28"></path><path d="M0 111L103.2 220L117.2 108Z" fill="#19435d" stroke="#19435d"></path><path d="M1280 224L1280 107L1163.8 203Z" fill="#15384f" stroke="#15384f"></path><path d="M0 600L0 720L102.2 720Z" fill="#1d4e6b" stroke="#1d4e6b"></path><path d="M0 0L0 111L117.2 108Z" fill="#246688" stroke="#246688"></path><path d="M1280 107L1280 0L1134.8 0Z" fill="#246688" stroke="#246688"></path><path d="M124.2 0L0 0L117.2 108Z" fill="#081a28" stroke="#081a28"></path></g></svg>